<svg width="214" height="32" viewBox="0 0 214 32" fill="none" xmlns="http://www.w3.org/2000/svg">
<path d="M10 0H204L214 4H0L10 0Z" fill="#B1473A"/>
<path d="M10 0H204L186.936 28.1474C185.486 30.5392 182.892 32 180.095 32H33.9053C31.1083 32 28.5144 30.5392 27.0643 28.1474L10 0Z" fill="url(#paint0_linear_715_28265)"/>
<path d="M10 0H204L186.936 28.1474C185.486 30.5392 182.892 32 180.095 32H33.9053C31.1083 32 28.5144 30.5392 27.0643 28.1474L10 0Z" fill="url(#paint1_linear_715_28265)"/>
<path d="M10 0H204L186.936 28.1474C185.486 30.5392 182.892 32 180.095 32H33.9053C31.1083 32 28.5144 30.5392 27.0643 28.1474L10 0Z" fill="url(#paint2_linear_715_28265)"/>
<path d="M10 0H204L186.936 28.1474C185.486 30.5392 182.892 32 180.095 32H33.9053C31.1083 32 28.5144 30.5392 27.0643 28.1474L10 0Z" fill="url(#paint3_linear_715_28265)"/>
<path d="M153 18.3346L156.526 17.2976L157.667 13.668L158.758 17.2437L162.333 18.3346L158.911 19.268L157.667 23.0013L156.422 19.268L153 18.3346Z" fill="white"/>
<path d="M162.828 12.1111L165.179 11.4198L165.939 9L166.667 11.3838L169.05 12.1111L166.769 12.7333L165.939 15.2222L165.11 12.7333L162.828 12.1111Z" fill="white"/>
<path d="M74.344 16.688H72.968V15.264H77.208V16.688H75.832V20.624C76.472 20.48 77.112 20.32 77.736 20.144V21.568C76.344 21.952 74.856 22.288 73.272 22.56L72.904 21.104C73.384 21.04 73.864 20.976 74.344 20.896V16.688ZM80.584 23.504C80.008 23.504 79.48 23.072 79.032 22.24C78.52 21.232 78.152 19.904 77.928 18.272C77.736 16.864 77.608 15.152 77.544 13.104H72.6V11.632H77.512C77.48 10.736 77.48 9.792 77.48 8.832H78.952C78.952 9.824 78.952 10.752 78.984 11.632H82.04V13.104H79.016C79.08 15.552 79.24 17.52 79.464 18.992C79.784 20.816 80.152 21.76 80.584 21.84C80.84 21.808 81.096 20.864 81.384 19.04L82.584 20.016C82.008 22.336 81.352 23.504 80.584 23.504ZM80.296 8.816C80.968 9.552 81.48 10.208 81.864 10.752L80.808 11.488C80.424 10.88 79.896 10.208 79.256 9.472L80.296 8.816ZM69.768 9.008C70.76 9.792 71.592 10.576 72.264 11.376L71.224 12.432C70.616 11.68 69.768 10.88 68.712 10.048L69.768 9.008ZM67.608 13.648H71.208V20.24C71.576 19.872 71.96 19.472 72.36 19.024L72.76 20.624C71.864 21.584 70.92 22.432 69.912 23.168L69.336 21.808C69.592 21.584 69.736 21.328 69.736 21.024V15.104H67.608V13.648ZM85.688 11.376H83.832V9.968H89.112V11.376H87.24V14.624H88.776V16.016H87.24V19.136C87.88 18.896 88.504 18.64 89.096 18.384V19.936C87.656 20.608 85.976 21.248 84.088 21.824L83.64 20.288C84.344 20.096 85.032 19.888 85.688 19.68V16.016H84.056V14.624H85.688V11.376ZM91.16 15.648H89.256V14.16H97.88V15.648H95.752V21.44C95.752 21.824 95.88 22.032 96.168 22.032H96.456C96.584 22.032 96.696 21.968 96.792 21.84C96.904 21.712 96.984 20.992 97.032 19.68L98.44 20.16C98.312 21.76 98.136 22.704 97.944 22.992C97.72 23.264 97.32 23.408 96.776 23.408H95.672C95.192 23.408 94.824 23.248 94.584 22.96C94.328 22.64 94.2 22.256 94.2 21.792V15.648H92.616V16.768C92.568 19.872 91.176 22.128 88.44 23.568L87.304 22.56C89.832 21.344 91.112 19.424 91.16 16.768V15.648ZM89.816 9.728H97.368V11.168H89.816V9.728ZM102.76 13.696C102.056 14.112 101.32 14.496 100.552 14.848L99.672 13.584C102.44 12.368 104.68 10.816 106.408 8.928H107.624C109.112 10.784 111.336 12.32 114.312 13.552L113.448 14.816C112.68 14.496 111.944 14.144 111.272 13.76V14.592H107.768V16.528H113.336V17.936H107.768V21.856H109.272C109.768 20.864 110.2 19.792 110.584 18.656L111.96 19.152C111.608 20.16 111.224 21.056 110.808 21.856H113.896V23.296H100.12V21.856H103.256C102.952 20.944 102.568 20.08 102.12 19.264L103.48 18.768C103.928 19.632 104.344 20.656 104.728 21.856H106.264V17.936H100.68V16.528H106.264V14.592H102.76V13.696ZM110.392 13.232C109.08 12.4 107.96 11.44 107.016 10.352C105.96 11.44 104.792 12.4 103.512 13.232H110.392ZM127.496 21.712H126.008L125.608 20.192L127 20.256C127.336 20.256 127.512 20.08 127.512 19.728V15.024H123.8V23.68H122.264V15.024H118.536V21.744H117.032V13.552H122.264V11.392C120.472 11.52 118.536 11.584 116.456 11.584L115.992 10.16C121.128 10.16 125.448 9.744 128.968 8.944L129.736 10.272C128.04 10.72 126.056 11.04 123.8 11.264V13.552H129.016V20.064C129.016 21.152 128.504 21.712 127.496 21.712ZM131.784 11.68H133.704V8.88H135.176V11.68H136.744V13.152H135.176V14.192C135.784 14.88 136.376 15.632 136.984 16.464L136.136 17.744C135.768 17.008 135.448 16.384 135.176 15.872V23.6H133.704V16.288C133.288 17.568 132.776 18.736 132.168 19.824L131.512 18.144C132.488 16.672 133.208 15.008 133.672 13.152H131.784V11.68ZM137.336 10.144H140.856C140.696 9.76 140.52 9.392 140.328 9.056L141.848 8.8C142.008 9.2 142.184 9.648 142.36 10.144H145.88V11.488H144.376C144.248 12.048 144.104 12.576 143.912 13.072H146.04V15.68H144.6V14.384H138.584V15.696H137.144V13.072H139.4C139.24 12.496 139.08 11.968 138.904 11.488H137.336V10.144ZM142.472 13.072C142.664 12.56 142.808 12.032 142.92 11.488H140.408C140.552 11.968 140.696 12.496 140.824 13.072H142.472ZM137.16 16.304H140.952C140.792 15.824 140.616 15.392 140.424 14.992L141.928 14.736C142.12 15.216 142.296 15.728 142.456 16.304H146.2V17.68H140.952C140.92 18.096 140.872 18.48 140.808 18.864H145.24C145.24 21.28 144.984 22.688 144.472 23.104C144.264 23.264 143.944 23.376 143.528 23.472C143.16 23.536 142.792 23.568 142.424 23.568H141.592L141.192 22.224H142.68C143.032 22.224 143.304 22.144 143.464 22.016C143.624 21.872 143.72 21.264 143.768 20.176H140.456C139.88 21.744 138.824 22.96 137.288 23.808L136.488 22.528C138.36 21.584 139.368 19.968 139.528 17.68H137.16V16.304Z" fill="white"/>
<path d="M51 18.3346L54.5259 17.2976L55.6667 13.668L56.7576 17.2437L60.3333 18.3346L56.9111 19.268L55.6667 23.0013L54.4222 19.268L51 18.3346Z" fill="white"/>
<path d="M45 12.1111L47.3506 11.4198L48.1111 9L48.8384 11.3838L51.2222 12.1111L48.9407 12.7333L48.1111 15.2222L47.2815 12.7333L45 12.1111Z" fill="white"/>
<defs>
<linearGradient id="paint0_linear_715_28265" x1="107" y1="0" x2="107" y2="33.3913" gradientUnits="userSpaceOnUse">
<stop stop-color="#16B13A"/>
<stop offset="0.0643609" stop-color="#1FCD2C"/>
<stop offset="0.541966" stop-color="#16B13A"/>
<stop offset="1" stop-color="#1FCD2C"/>
</linearGradient>
<linearGradient id="paint1_linear_715_28265" x1="107" y1="0" x2="107" y2="32" gradientUnits="userSpaceOnUse">
<stop stop-color="#5567FF"/>
<stop offset="1" stop-color="#9E1EFF"/>
</linearGradient>
<linearGradient id="paint2_linear_715_28265" x1="107" y1="2.24113e-05" x2="108.279" y2="31.9488" gradientUnits="userSpaceOnUse">
<stop stop-color="#2961F0"/>
<stop offset="1" stop-color="#1F1BDF"/>
</linearGradient>
<linearGradient id="paint3_linear_715_28265" x1="10" y1="0" x2="179.161" y2="80.9262" gradientUnits="userSpaceOnUse">
<stop stop-color="#FA397E"/>
<stop offset="1" stop-color="#FF852D"/>
</linearGradient>
</defs>
</svg>
