<svg width="214" height="32" viewBox="0 0 214 32" fill="none" xmlns="http://www.w3.org/2000/svg">
<path d="M10 0H204L214 4H0L10 0Z" fill="#B1473A"/>
<path d="M10 0H204L186.936 28.1474C185.486 30.5392 182.892 32 180.095 32H33.9053C31.1083 32 28.5144 30.5392 27.0643 28.1474L10 0Z" fill="url(#paint0_linear_715_27425)"/>
<path d="M10 0H204L186.936 28.1474C185.486 30.5392 182.892 32 180.095 32H33.9053C31.1083 32 28.5144 30.5392 27.0643 28.1474L10 0Z" fill="url(#paint1_linear_715_27425)"/>
<path d="M10 0H204L186.936 28.1474C185.486 30.5392 182.892 32 180.095 32H33.9053C31.1083 32 28.5144 30.5392 27.0643 28.1474L10 0Z" fill="url(#paint2_linear_715_27425)"/>
<path d="M145 18.3346L148.526 17.2976L149.667 13.668L150.758 17.2437L154.333 18.3346L150.911 19.268L149.667 23.0013L148.422 19.268L145 18.3346Z" fill="white"/>
<path d="M154.828 12.1111L157.179 11.4198L157.939 9L158.667 11.3838L161.05 12.1111L158.769 12.7333L157.939 15.2222L157.11 12.7333L154.828 12.1111Z" fill="white"/>
<path d="M82.344 16.688H80.968V15.264H85.208V16.688H83.832V20.624C84.472 20.48 85.112 20.32 85.736 20.144V21.568C84.344 21.952 82.856 22.288 81.272 22.56L80.904 21.104C81.384 21.04 81.864 20.976 82.344 20.896V16.688ZM88.584 23.504C88.008 23.504 87.48 23.072 87.032 22.24C86.52 21.232 86.152 19.904 85.928 18.272C85.736 16.864 85.608 15.152 85.544 13.104H80.6V11.632H85.512C85.48 10.736 85.48 9.792 85.48 8.832H86.952C86.952 9.824 86.952 10.752 86.984 11.632H90.04V13.104H87.016C87.08 15.552 87.24 17.52 87.464 18.992C87.784 20.816 88.152 21.76 88.584 21.84C88.84 21.808 89.096 20.864 89.384 19.04L90.584 20.016C90.008 22.336 89.352 23.504 88.584 23.504ZM88.296 8.816C88.968 9.552 89.48 10.208 89.864 10.752L88.808 11.488C88.424 10.88 87.896 10.208 87.256 9.472L88.296 8.816ZM77.768 9.008C78.76 9.792 79.592 10.576 80.264 11.376L79.224 12.432C78.616 11.68 77.768 10.88 76.712 10.048L77.768 9.008ZM75.608 13.648H79.208V20.24C79.576 19.872 79.96 19.472 80.36 19.024L80.76 20.624C79.864 21.584 78.92 22.432 77.912 23.168L77.336 21.808C77.592 21.584 77.736 21.328 77.736 21.024V15.104H75.608V13.648ZM93.688 11.376H91.832V9.968H97.112V11.376H95.24V14.624H96.776V16.016H95.24V19.136C95.88 18.896 96.504 18.64 97.096 18.384V19.936C95.656 20.608 93.976 21.248 92.088 21.824L91.64 20.288C92.344 20.096 93.032 19.888 93.688 19.68V16.016H92.056V14.624H93.688V11.376ZM99.16 15.648H97.256V14.16H105.88V15.648H103.752V21.44C103.752 21.824 103.88 22.032 104.168 22.032H104.456C104.584 22.032 104.696 21.968 104.792 21.84C104.904 21.712 104.984 20.992 105.032 19.68L106.44 20.16C106.312 21.76 106.136 22.704 105.944 22.992C105.72 23.264 105.32 23.408 104.776 23.408H103.672C103.192 23.408 102.824 23.248 102.584 22.96C102.328 22.64 102.2 22.256 102.2 21.792V15.648H100.616V16.768C100.568 19.872 99.176 22.128 96.44 23.568L95.304 22.56C97.832 21.344 99.112 19.424 99.16 16.768V15.648ZM97.816 9.728H105.368V11.168H97.816V9.728ZM118.088 12.48C117.672 13.44 117.176 14.272 116.584 14.96L115.624 13.776C116.584 12.544 117.224 10.88 117.56 8.8L119.064 9.056C118.936 9.728 118.792 10.368 118.632 10.96H122.36V12.48H118.088ZM108.744 9.12C109.608 9.776 110.328 10.448 110.92 11.12L109.848 12.192C109.336 11.552 108.616 10.848 107.704 10.112L108.744 9.12ZM108.696 13.12C109.592 13.824 110.36 14.528 110.984 15.248L109.896 16.336C109.352 15.648 108.616 14.912 107.656 14.112L108.696 13.12ZM109.512 17.472L110.856 18C110.28 19.92 109.64 21.728 108.936 23.408L107.528 22.784C108.296 21.056 108.952 19.28 109.512 17.472ZM112.104 12.72H110.936V11.264H113.016C112.824 10.464 112.6 9.728 112.376 9.056L113.896 8.8C114.12 9.52 114.312 10.336 114.504 11.264H116.248V12.72H113.592V13.632C113.592 14.016 113.576 14.384 113.56 14.752H116.056C116.056 18.64 115.976 21.04 115.848 21.952C115.736 22.912 115.208 23.392 114.248 23.392C114.024 23.392 113.64 23.36 113.096 23.312L112.744 22.016C113.24 22.048 113.672 22.08 114.04 22.08C114.28 22.08 114.424 21.824 114.456 21.312C114.552 20.8 114.616 19.104 114.648 16.208H113.48C113.224 19.456 112.504 21.92 111.352 23.6L110.216 22.592C111.448 20.736 112.072 17.744 112.104 13.632V12.72ZM117.432 13.84H121.896V15.2C121.416 15.808 120.888 16.416 120.328 16.992V17.776H122.424V19.136H120.328V21.712C120.328 22.848 119.88 23.424 119.016 23.424H117.528L117.16 22.048C117.56 22.064 118.008 22.08 118.488 22.08C118.728 22.08 118.856 21.776 118.856 21.2V19.136H116.584V17.776H118.856V16.816C119.432 16.16 119.88 15.616 120.2 15.2H117.432V13.84ZM137.592 12.512L137.832 13.968L133.688 14.624C133.752 15.264 133.816 15.84 133.912 16.368C134.04 17.056 134.168 17.68 134.312 18.224C135.096 17.296 135.8 16.224 136.408 15.04L137.64 15.856C136.776 17.456 135.832 18.8 134.824 19.888C134.888 20.08 134.952 20.256 135.032 20.416C135.496 21.328 135.912 21.792 136.296 21.808C136.504 21.744 136.712 20.864 136.936 19.184L138.232 20.016C138.008 20.944 137.752 21.712 137.496 22.352C137.16 23.12 136.792 23.504 136.376 23.504C135.704 23.504 135.032 22.976 134.36 21.952C134.152 21.632 133.96 21.264 133.784 20.88C132.76 21.76 131.688 22.416 130.568 22.848L129.64 21.616C130.952 21.104 132.152 20.352 133.208 19.376C133.016 18.768 132.824 18.112 132.664 17.408C132.488 16.672 132.344 15.824 132.232 14.864L130.328 15.168L130.104 13.696L132.088 13.392C131.992 12.048 131.928 10.56 131.928 8.896H133.448C133.448 10.464 133.48 11.888 133.576 13.152L137.592 12.512ZM135.544 9.296C136.248 10.048 136.776 10.704 137.16 11.264L135.88 12.144C135.496 11.52 134.968 10.832 134.312 10.08L135.544 9.296ZM125.16 13.056C125.992 13.952 126.792 14.832 127.528 15.728C127.96 14.512 128.248 13.2 128.392 11.808H124.312V10.304H129.864V11.696C129.72 13.712 129.32 15.52 128.648 17.136C129.32 18.016 129.928 18.896 130.504 19.776L129.4 20.848C128.952 20.112 128.456 19.392 127.912 18.656C127.048 20.176 125.928 21.504 124.52 22.624L123.56 21.44C124.968 20.256 126.056 18.88 126.856 17.296C126.024 16.272 125.08 15.216 124.056 14.128L125.16 13.056Z" fill="white"/>
<path d="M59.9375 18.3346L63.4634 17.2976L64.6042 13.668L65.6951 17.2437L69.2708 18.3346L65.8486 19.268L64.6042 23.0013L63.3597 19.268L59.9375 18.3346Z" fill="white"/>
<path d="M54 12.1111L56.3506 11.4198L57.1111 9L57.8384 11.3838L60.2222 12.1111L57.9407 12.7333L57.1111 15.2222L56.2815 12.7333L54 12.1111Z" fill="white"/>
<defs>
<linearGradient id="paint0_linear_715_27425" x1="107" y1="0" x2="107" y2="33.3913" gradientUnits="userSpaceOnUse">
<stop stop-color="#16B13A"/>
<stop offset="0.0643609" stop-color="#1FCD2C"/>
<stop offset="0.541966" stop-color="#16B13A"/>
<stop offset="1" stop-color="#1FCD2C"/>
</linearGradient>
<linearGradient id="paint1_linear_715_27425" x1="107" y1="0" x2="107" y2="32" gradientUnits="userSpaceOnUse">
<stop stop-color="#5567FF"/>
<stop offset="1" stop-color="#9E1EFF"/>
</linearGradient>
<linearGradient id="paint2_linear_715_27425" x1="10" y1="0" x2="179.161" y2="80.9262" gradientUnits="userSpaceOnUse">
<stop stop-color="#FA397E"/>
<stop offset="1" stop-color="#FF852D"/>
</linearGradient>
</defs>
</svg>
